<svg width="703" height="665" viewBox="0 0 703 665" fill="none" xmlns="http://www.w3.org/2000/svg">
<g clip-path="url(#clip0_563_3)">
<path d="M463.614 139.785C448.453 87.0719 393.43 56.6299 340.716 71.7911C288.003 86.9523 257.561 141.975 272.722 194.688C285.018 237.439 323.532 265.535 365.769 266.544L383.297 273.917L358.457 366.151L486.554 390.285L538.614 256.285C538.614 256.285 463.046 257.7 443.754 231.65C464.594 207.149 473.171 173.013 463.614 139.785Z" fill="#ED9DA0"/>
<path d="M1.99975 601.822L201.371 680.417L395 651.822L191 591.822L1.99975 601.822Z" fill="#4E4D5B"/>
<path d="M189.896 569.416L380.659 474.197L421.326 536.005L216.206 621.847C211.724 636.089 200.566 649.385 184.568 657.413C156.576 671.459 124.461 664.066 112.836 640.9C101.212 617.735 114.48 587.569 142.472 573.522C158.47 565.495 175.799 564.496 189.896 569.416Z" fill="#ED9DA0"/>
<path d="M513.614 254.285C513.614 254.285 495 350.822 430 348.822C365 346.822 377 300.822 377 300.822L315.604 335.322C315.604 335.322 289 372.822 289 419.822L270 510.822L243 538.822L323 601.822L364 543.822L405 667.822L702.5 680.417L697 424.822C697 424.822 681 301.822 613 276.822C545 251.822 513.614 254.285 513.614 254.285Z" fill="#6E1613"/>
<path d="M348.14 99.7798C348.14 99.7798 309.154 135.053 269.239 129.483C229.325 123.914 221.899 109.99 221.899 104.421C221.899 104.421 221.899 106.277 233.038 109.99L237.679 70.0761C237.679 70.0761 243.249 80.545 263.67 84.1288C263.67 84.1288 246.033 76.76 263.67 62.2792C263.67 62.2792 272.952 70.0761 281.306 70.0761C281.306 70.0761 327.718 6.95574 419.614 46.8701V30.285L427.968 51.5113L438.747 50.574L449.318 49.6548C449.318 49.6548 472.524 76.5738 470.667 95.1386C468.811 113.703 504.024 206.95 443.254 235.514C443.254 235.514 457.672 152.689 432.61 172.183C407.547 191.676 391.767 161.044 391.767 161.044L348.14 99.7798Z" fill="#271511"/>
<path opacity="0.5" d="M22.749 507.961C17.1035 507.961 11.7842 505.822 7.6875 501.884C3.375 497.74 1 492.163 1 486.182V199.447C1 193.032 3.80762 186.974 8.7041 182.828C13.5986 178.682 20.0303 176.908 26.3643 177.967L250.179 215.339C260.796 217.112 268.446 226.211 268.37 236.975L266.646 477.522C266.562 489.175 257.375 498.664 245.731 499.126L23.6406 507.943C23.3428 507.954 23.0459 507.961 22.749 507.961Z" fill="white" fill-opacity="0.31"/>
<path d="M22.749 508.961C16.8535 508.961 11.2578 506.703 6.99414 502.605C2.48437 498.271 0 492.438 0 486.182V199.447C0 192.736 2.93652 186.401 8.05762 182.065C13.1777 177.727 19.9092 175.875 26.5293 176.98L250.344 214.353C261.448 216.207 269.45 225.724 269.37 236.982L267.646 477.529C267.56 489.382 258.47 499.096 246.769 500.064L246.77 500.086L23.6807 508.942C23.3692 508.954 23.0586 508.961 22.749 508.961ZM22.7617 178.667C17.8848 178.667 13.1348 180.385 9.35059 183.591C4.67871 187.546 2 193.326 2 199.447V486.182C2 491.889 4.26562 497.209 8.38086 501.163C12.4756 505.099 17.9307 507.173 23.6016 506.944L245.691 498.127C256.801 497.686 265.565 488.632 265.646 477.515L267.37 236.968C267.442 226.698 260.144 218.016 250.014 216.326L26.1992 178.953C25.0537 178.762 23.9043 178.667 22.7617 178.667Z" fill="#090814"/>
<path d="M100.322 359.143H100.269L33.124 358.84C26.1631 358.808 20.5 353.12 20.5 346.158V261.812C20.5 258.218 22.0332 254.78 24.707 252.378C27.375 249.98 30.9609 248.825 34.5332 249.202L101.674 256.405C108.133 257.098 113.003 262.519 113.003 269.015V346.462C113.003 349.86 111.677 353.052 109.268 355.45C106.875 357.831 103.698 359.143 100.322 359.143ZM33.1924 251.131C30.5654 251.131 28.0098 252.098 26.0439 253.866C23.791 255.889 22.5 258.785 22.5 261.812V346.158C22.5 352.022 27.2705 356.813 33.1338 356.84L100.273 357.143L100.322 358.143V357.143C103.166 357.143 105.842 356.038 107.857 354.032C109.886 352.013 111.003 349.324 111.003 346.462V269.014C111.003 263.543 106.9 258.977 101.461 258.393L34.3213 251.191C33.9443 251.151 33.5674 251.131 33.1924 251.131Z" fill="#090814"/>
<path d="M232.317 358.822H130.682C123.688 358.822 118 353.133 118 346.14V275.442C118 271.912 119.488 268.515 122.083 266.12C124.674 263.729 128.184 262.524 131.701 262.801L233.337 270.997C239.877 271.525 245 277.077 245 283.638V346.14C245 353.133 239.311 358.822 232.317 358.822ZM130.693 264.76C128.019 264.76 125.414 265.768 123.438 267.59C121.254 269.607 120 272.469 120 275.442V346.14C120 352.03 124.792 356.822 130.682 356.822H232.317C238.208 356.822 243 352.03 243 346.14V283.638C243 278.112 238.685 273.435 233.177 272.991L131.541 264.794C131.258 264.771 130.975 264.76 130.693 264.76Z" fill="#090814"/>
<path d="M133 277.822V284.837L186 286.822V280.896L133 277.822Z" fill="white"/>
<path d="M133 294.689V301.586L224 304.822V299.755L133 294.689Z" fill="white"/>
<path d="M133 307.497V314.148L183 315.822V310.322L133 307.497Z" fill="white"/>
<path d="M32.3711 438.181C29.2324 438.181 26.2715 436.966 24.0352 434.759C21.7559 432.511 20.5 429.508 20.5 426.305V383.638C20.5 377.09 25.8271 371.763 32.375 371.763H85.624C92.1728 371.763 97.5 377.09 97.5 383.638V425.585C97.5 432.045 92.2451 437.372 85.7851 437.46L32.3711 438.181ZM32.375 373.763C26.9297 373.763 22.5 378.193 22.5 383.638V426.305C22.5 428.969 23.544 431.465 25.4395 433.335C27.2998 435.17 29.7607 436.181 32.3711 436.181L32.5098 436.18L85.7578 435.46C91.1299 435.387 95.5 430.957 95.5 425.585V383.638C95.5 378.193 91.0693 373.763 85.624 373.763L32.375 373.763Z" fill="#090814"/>
<path d="M119.423 435.41C116.3 435.41 113.35 434.204 111.116 432.016C108.819 429.764 107.554 426.752 107.554 423.535V383.638C107.554 377.09 112.881 371.763 119.43 371.763H163.624C170.173 371.763 175.5 377.09 175.5 383.638V422.651C175.5 429.07 170.278 434.396 163.86 434.525L119.423 435.41ZM119.43 373.763C113.984 373.763 109.554 378.193 109.554 383.638V423.535C109.554 426.21 110.605 428.715 112.517 430.587C114.374 432.408 116.826 433.41 119.423 433.41L119.627 433.408L163.821 432.525C169.158 432.418 173.5 427.989 173.5 422.651V383.638C173.5 378.193 169.069 373.763 163.624 373.763H119.43Z" fill="#090814"/>
<path d="M194.547 432.363C191.435 432.363 188.492 431.163 186.261 428.986C183.951 426.732 182.679 423.714 182.679 420.487V383.638C182.679 377.09 188.006 371.763 194.555 371.763H232.716C239.206 371.763 244.533 377.042 244.591 383.533L244.909 419.44C244.966 425.886 239.77 431.259 233.325 431.417L194.547 432.363ZM194.555 373.763C189.109 373.763 184.679 378.193 184.679 383.638V420.487C184.679 423.17 185.736 425.681 187.657 427.555C189.514 429.366 191.96 430.363 194.547 430.363L194.8 430.359L233.276 429.418C238.635 429.286 242.956 424.818 242.909 419.457L242.591 383.55C242.543 378.153 238.113 373.763 232.716 373.763L194.555 373.763Z" fill="#090814"/>
<path d="M34.4997 390.322V395.169H77.3151L78.0902 390.322H34.4997Z" fill="white"/>
<path d="M79.7188 343.946L56.417 314.819L31.207 340.029L29.793 338.615L56.583 311.825L81.2812 342.697L79.7188 343.946Z" fill="white"/>
<path d="M95.1631 341.986L80.2949 319.246L69.1621 329.072L67.8379 327.572L80.7051 316.218L96.8369 340.891L95.1631 341.986Z" fill="white"/>
<path opacity="0.5" d="M535.099 150.942C530.066 150.942 525.167 149.185 521.239 145.896C516.32 141.778 513.5 135.737 513.5 129.322V53.4193C513.5 43.4813 520.233 34.8573 529.875 32.4471L653.048 1.65367C659.485 0.0433209 666.199 1.44078 671.461 5.48375C676.724 9.52721 679.802 15.6522 679.905 22.288L681.226 106.768C681.393 117.424 673.898 126.515 663.408 128.387L538.915 150.603C537.644 150.83 536.366 150.942 535.099 150.942Z" fill="white" fill-opacity="0.35"/>
<path d="M535.099 151.942C529.813 151.942 524.662 150.067 520.598 146.662C515.451 142.354 512.5 136.034 512.5 129.322V53.4193C512.5 43.0214 519.545 33.9984 529.633 31.4769L652.806 0.683461C659.539 -0.999649 666.563 0.459342 672.07 4.69078C677.576 8.92174 680.797 15.3299 680.905 22.2723L682.226 106.753C682.4 117.901 674.561 127.413 663.584 129.371L539.091 151.587C537.773 151.823 536.431 151.942 535.099 151.942ZM658.33 1.99987C656.653 1.99987 654.962 2.20544 653.29 2.62389L530.117 33.4174C520.922 35.7157 514.5 43.9408 514.5 53.4193V129.322C514.5 135.44 517.19 141.202 521.881 145.129C526.521 149.015 532.777 150.683 538.739 149.619L663.232 127.403C673.238 125.618 680.385 116.946 680.226 106.784L678.905 22.3036C678.807 15.975 675.871 10.1332 670.852 6.27672C667.198 3.46959 662.813 1.99987 658.33 1.99987Z" fill="#090814"/>
<path d="M552 54.8216V62.7625L632 45.8216L635 36.8216L552 54.8216Z" fill="white"/>
<path d="M552 73.8216V81.7625L632 64.8216L635 55.8216L552 73.8216Z" fill="white"/>
<path d="M552 92.8216V100.762L632 83.8216L635 74.8216L552 92.8216Z" fill="white"/>
<path d="M552 111.822V119.762L632 102.822L635 93.8216L552 111.822Z" fill="white"/>
<path d="M342.898 593.159L556.059 588.72L566.369 661.985L344.244 651.806C334.1 662.761 318.325 670.004 300.431 670.415C269.121 671.133 243.257 650.71 242.662 624.798C242.068 598.886 266.967 577.298 298.278 576.579C316.172 576.169 332.262 582.681 342.898 593.159Z" fill="#ED9DA0"/>
<path d="M555 430.822C555 430.822 548 474.822 569 489.822C569 489.822 562 543.822 579 560.822C579 560.822 547.76 562.087 553.88 578.454C553.88 578.454 508 570.822 514 589.822C514 589.822 556.459 640.781 546.229 673.801L685 666.822L700.488 586.918" fill="#6E1613"/>
</g>
<defs>
<clipPath id="clip0_563_3">
<rect width="702.5" height="680.417" fill="white"/>
</clipPath>
</defs>
</svg>
